<?xml version="1.0" encoding="utf-8"?>
<!-- Svg Vector Icons : http://www.onlinewebfonts.com/icon -->
<!DOCTYPE svg PUBLIC "-//W3C//DTD SVG 1.1//EN" "http://www.w3.org/Graphics/SVG/1.1/DTD/svg11.dtd">
<svg version="1.1" xmlns="http://www.w3.org/2000/svg" xmlns:xlink="http://www.w3.org/1999/xlink" x="0px" y="0px" viewBox="0 0 1000 1000" enable-background="new 0 0 1000 1000" xml:space="preserve">
<metadata> Svg Vector Icons : http://www.onlinewebfonts.com/icon </metadata>
<g><g transform="translate(0.000000,511.000000) scale(0.100000,-0.100000)"><path d="M1122.2,4989.7c-394.4-67.6-739.2-419.2-804.6-824.9c-29.3-182.5-29.3-7951.2,0-8133.7c42.8-268.2,211.9-513.8,462-678.4c236.6-155.5-58.6-146.5,4284.3-139.7l3919.2,6.8l157.8,76.6c207.3,101.4,385.4,281.7,486.8,486.8l76.6,157.8V99.1v4158.1l-72.1,153.2c-144.2,302-432.7,529.6-739.2,579.2C8728.5,5016.8,1282.2,5016.8,1122.2,4989.7z M9055.3,4552.5c117.2-63.1,207.3-169,252.4-290.7c36.1-94.7,33.8-8192.3-2.3-8311.8c-33.8-119.5-153.3-254.7-284-317.8l-105.9-51.8h-3899h-3899l-128.5,63.1c-144.2,69.9-234.4,175.8-279.5,326.8c-27,83.4-31.5,782.1-31.5,4128.8c0,4525.5-13.5,4180.7,169,4361c178,180.3-153.2,166.8,4203.2,162.3l3887.7-4.5L9055.3,4552.5z"/><path d="M1329.5,3977.8l-65.4-65.4V1352.2v-2558l54.1-63.1l54.1-63.1l3569.9-6.8c1960.7-2.3,3601.5,0,3642,6.8c40.5,6.7,94.6,33.8,119.4,58.6c40.6,40.6,42.8,85.7,42.8,1390.6c0,779.8,9,1356.8,20.3,1370.3c13.5,11.3,13.5,69.9,0,144.2c-11.3,67.6-20.3,606.3-18,1199c2.3,1111.1,0,1140.4-92.4,1190c-27.1,15.8-1235,22.5-3651,22.5H1394.9L1329.5,3977.8z M8385.9,2729.2v-930.8l-867.7-166.8c-477.8-90.1-872.2-160-876.7-155.5c-4.5,4.5-200.6,338.1-435,741.5c-236.6,403.4-455.3,759.5-486.8,795.6c-74.4,78.9-189.3,83.4-256.9,11.3c-24.8-29.3-308.8-615.3-628.8-1302.7C4511.8,1032.2,4241.3,466.5,4227.8,462c-11.3-4.5-232.1,360.6-489.1,811.3c-256.9,450.8-484.5,845.2-509.3,876.7c-33.8,42.8-65.4,56.3-130.7,56.3c-81.1,0-144.2-45.1-770.8-545.4l-680.6-545.4v1271.1V3660h3369.3h3369.3V2729.2z M6010.5,1807.4c211.9-362.8,410.2-678.4,444-703.2l58.6-42.8l908.2,171.3c500.3,96.9,921.8,173.5,937.5,173.5c20.3,0,27.1-265.9,27.1-1183.2V-960.1H5016.6H1647.3v795.6V631l669.4,536.4c367.4,295.2,682.9,538.6,700.9,540.9c22.5,2.2,205.1-297.5,534.1-872.2c277.2-482.3,522.9-906,549.9-942.1c63.1-85.7,196.1-92.4,266-13.5c36,38.3,892.5,1841.3,1183.2,2490.4c22.5,51.8,49.6,94.7,58.6,94.7C5618.4,2465.5,5798.7,2168,6010.5,1807.4z"/><path d="M1874.9-2348.4c-229.9-83.4-414.7-252.4-527.4-482.3c-65.4-130.7-72.1-166.8-72.1-338.1c2.3-169,9-209.6,72.1-340.3c87.9-180.3,270.4-358.4,450.7-444c110.4-51.8,162.3-60.9,322.3-60.9c169,0,209.6,9,342.6,72.1c187.1,87.9,347.1,243.4,437.2,423.7c58.6,121.7,65.4,157.8,65.4,349.3c0,184.8-9,232.1-60.9,342.6c-83.4,180.3-241.1,342.6-421.4,430.5c-124,60.8-178,72.1-329,78.9C2032.7-2314.6,1942.5-2323.7,1874.9-2348.4z M2267.1-2697.8c151-38.3,275-155.5,317.8-306.5c56.3-191.6,4.5-416.9-119.5-529.6c-108.2-99.2-387.6-142-540.9-83.4c-320,119.5-378.6,658.1-94.7,847.4C1969.6-2677.5,2102.5-2657.2,2267.1-2697.8z"/><path d="M6569.5-2524.2c-279.5-90.1-489.1-365.1-489.1-644.6c0-236.7,169-489.1,401.2-599.5c516.1-245.7,1111.1,344.8,865.4,858.7C7202.7-2605.4,6851.2-2431.8,6569.5-2524.2z M6898.5-2909.6c184.8-94.7,180.3-426-6.8-513.8c-275-130.7-520.6,96.9-419.2,387.6C6522.1-2893.8,6743-2828.5,6898.5-2909.6z"/><path d="M8149.3-2513c-180.3-47.3-380.9-209.6-475.5-387.6c-65.4-121.7-58.6-405.7,13.5-545.4c171.3-338.1,549.9-471,876.7-306.5c329,164.5,473.3,549.9,317.8,851.9C8739.8-2618.9,8408.5-2445.4,8149.3-2513z M8500.9-2961.5c54.1-60.8,65.4-92.4,65.4-191.6c0-157.8-58.6-252.4-178.1-288.5c-263.7-78.9-473.3,139.7-376.3,392.1c49.6,133,126.2,178,293,166.8C8419.8-2889.3,8446.8-2900.6,8500.9-2961.5z"/></g></g>
</svg>